<?xml version="1.0" standalone="no"?>
<!DOCTYPE svg PUBLIC "-//W3C//DTD SVG 20010904//EN"
 "http://www.w3.org/TR/2001/REC-SVG-20010904/DTD/svg10.dtd">
<svg version="1.0" xmlns="http://www.w3.org/2000/svg"
 width="720.000000pt" height="461.000000pt" viewBox="0 0 720.000000 461.000000"
 preserveAspectRatio="xMidYMid meet">

<g transform="translate(0.000000,461.000000) scale(0.100000,-0.100000)"
fill="#000000" stroke="none">
<path d="M2200 4243 c0 -17 21 -63 43 -96 17 -24 17 -31 6 -42 -17 -16 -756
-495 -776 -502 -7 -3 -13 1 -13 8 0 8 -10 -1 -21 -18 l-21 -33 -168 0 c-214 0
-200 15 -200 -207 0 -214 -11 -203 187 -204 82 -1 140 -3 131 -6 -9 -2 -15
-10 -12 -17 3 -8 -81 -82 -213 -189 -548 -443 -577 -466 -571 -472 2 -2 26 2
53 9 28 8 184 45 348 82 163 38 293 70 288 72 -5 2 -123 -24 -263 -57 -340
-80 -316 -74 -298 -62 21 15 8 13 -35 -5 -20 -8 -41 -14 -45 -12 -5 2 109 98
252 213 143 116 315 254 381 308 88 73 122 95 128 86 6 -10 12 -4 22 20 l14
34 24 -32 c16 -22 25 -28 29 -18 4 10 50 -10 177 -77 95 -50 172 -93 173 -96
0 -3 -247 -95 -550 -204 -302 -110 -550 -201 -550 -203 0 -8 18 -2 630 220
129 47 293 106 363 131 l129 46 94 -51 c52 -28 94 -53 92 -54 -2 -2 -149 -38
-328 -79 -179 -42 -347 -82 -375 -88 -27 -7 -43 -13 -35 -15 8 -1 182 37 385
86 l370 88 57 -29 c75 -37 89 -36 18 2 -35 18 -50 30 -40 33 8 3 88 22 178 42
90 20 172 39 183 42 17 5 19 0 19 -41 0 -32 -4 -45 -11 -40 -8 4 -9 0 -4 -15
6 -20 3 -21 -68 -21 -53 0 -78 -4 -87 -15 -8 -10 -11 -63 -11 -177 2 -212 -10
-201 196 -196 110 2 157 7 168 17 15 11 17 37 17 177 0 196 1 194 -101 194
-66 0 -70 1 -64 20 5 15 3 18 -9 14 -13 -5 -16 2 -16 39 0 25 3 48 8 50 4 3
108 28 232 57 l226 52 99 -29 98 -30 -134 -73 c-74 -40 -158 -86 -186 -102
-47 -26 -53 -27 -53 -11 0 15 -3 14 -20 -7 -26 -34 -25 -40 10 -40 20 0 28 4
24 13 -3 8 13 21 38 34 50 26 210 112 286 154 l54 30 61 -20 c34 -10 132 -40
217 -65 85 -24 211 -61 280 -81 69 -20 163 -48 210 -61 108 -31 141 -44 135
-54 -8 -12 24 -40 45 -40 25 0 20 44 -8 73 -19 19 -22 19 -22 4 0 -9 -4 -17
-8 -17 -12 0 -546 437 -550 450 -2 6 59 10 166 10 l171 0 20 26 c19 24 21 40
21 183 0 213 12 201 -205 201 l-165 0 -17 28 c-24 38 -23 38 -32 24 -5 -9 -40
9 -122 62 -63 41 -241 156 -396 257 l-282 182 18 26 c21 30 53 102 47 108 -2
2 -9 -11 -16 -29 -40 -99 -124 -159 -235 -166 -62 -4 -80 -1 -126 20 -67 31
-105 68 -135 133 -13 28 -24 45 -24 38z m208 -205 l52 -13 0 -203 c0 -153 -3
-201 -12 -196 -7 5 -9 2 -6 -7 3 -8 8 -24 12 -36 l7 -23 -165 0 c-210 0 -196
15 -196 -207 0 -213 -9 -203 175 -203 l135 0 0 -27 0 -26 25 23 c14 13 25 18
25 12 0 -6 -4 -14 -10 -17 -5 -3 -10 -13 -10 -21 0 -8 5 -12 10 -9 6 4 10 -26
10 -83 l0 -90 -152 -36 c-280 -66 -242 -65 -352 -6 -53 29 -96 53 -96 55 0 1
122 46 270 100 149 54 269 100 266 102 -2 3 -128 -40 -280 -95 l-275 -100
-180 97 c-99 53 -179 101 -177 106 1 6 58 11 134 13 176 4 172 -2 172 207 0
139 -2 155 -21 179 -20 26 -22 26 -145 26 -188 0 -187 3 20 138 94 61 274 178
400 260 l229 149 41 -28 c23 -16 65 -35 94 -41z m546 -120 c155 -100 331 -215
393 -255 147 -96 145 -103 -28 -103 -177 0 -169 9 -169 -205 0 -214 -7 -205
167 -205 69 0 124 -3 121 -6 -12 -12 -509 -123 -525 -117 -11 4 -14 3 -9 -5 4
-8 0 -12 -11 -12 -10 0 -103 -20 -207 -45 -105 -25 -196 -45 -203 -45 -10 0
-13 22 -13 86 0 75 2 85 16 80 12 -4 15 -2 10 9 -3 8 -9 22 -12 30 -3 8 -2 15
4 15 5 0 94 -25 197 -55 103 -31 192 -54 198 -52 5 1 -41 17 -104 35 -63 18
-148 43 -189 56 l-75 24 139 1 c193 1 186 -7 186 206 0 217 12 205 -206 205
l-165 0 16 30 c19 36 19 41 0 34 -13 -5 -15 21 -15 199 l0 205 43 6 c23 4 65
20 92 36 28 16 54 29 59 29 5 1 136 -81 290 -181z m-1190 -390 c13 -18 16 -53
16 -173 0 -120 -3 -155 -16 -173 -15 -22 -16 -22 -341 -22 -290 0 -328 2 -345
17 -16 14 -18 34 -18 179 0 134 3 165 16 178 13 14 59 16 344 16 328 0 329 0
344 -22z m1050 0 c13 -18 16 -53 16 -173 0 -120 -3 -155 -16 -173 -15 -22 -16
-22 -341 -22 -290 0 -328 2 -345 17 -16 14 -18 34 -18 176 0 135 3 163 17 179
15 17 39 18 344 18 327 0 328 0 343 -22z m1048 5 c16 -14 18 -34 18 -172 0
-125 -3 -161 -16 -179 -15 -22 -16 -22 -342 -22 -286 1 -328 3 -344 17 -16 14
-18 35 -18 176 0 135 3 163 17 179 15 17 39 18 341 18 289 0 327 -2 344 -17z
m-556 -489 l-159 -85 -95 29 -96 29 119 28 c66 15 172 40 235 55 63 16 124 29
135 29 11 1 -52 -37 -139 -85z m674 -306 c19 -15 32 -28 27 -28 -4 0 -105 29
-225 64 -119 35 -306 90 -415 122 -108 32 -194 61 -190 65 13 12 271 149 281
149 6 0 12 -6 14 -12 3 -8 9 -5 16 9 12 21 21 15 235 -160 122 -100 238 -194
257 -209z m-1345 16 c12 -13 15 -45 15 -168 0 -105 -4 -156 -12 -164 -17 -17
-319 -17 -336 0 -8 8 -12 60 -12 170 0 139 2 158 18 167 9 5 83 10 164 10 119
0 150 -3 163 -15z"/>
<path d="M1340 3379 c0 -5 5 -7 10 -4 6 3 10 8 10 11 0 2 -4 4 -10 4 -5 0 -10
-5 -10 -11z"/>
<path d="M1391 3353 c1 -21 3 -31 6 -22 2 10 13 19 24 22 29 8 24 37 -6 37
-22 0 -25 -4 -24 -37z m39 17 c0 -5 -7 -10 -15 -10 -8 0 -15 5 -15 10 0 6 7
10 15 10 8 0 15 -4 15 -10z"/>
<path d="M1453 3353 c0 -21 2 -30 4 -21 2 9 14 18 26 20 31 4 28 32 -4 36 -25
3 -27 0 -26 -35z m47 17 c0 -5 -9 -10 -20 -10 -11 0 -20 5 -20 10 0 6 9 10 20
10 11 0 20 -4 20 -10z"/>
<path d="M1325 3341 c-3 -7 -3 -16 0 -19 3 -3 5 0 5 6 0 7 9 12 20 12 11 0 20
4 20 8 0 14 -39 8 -45 -7z"/>
<path d="M2390 3380 c0 -5 5 -10 10 -10 6 0 10 5 10 10 0 6 -4 10 -10 10 -5 0
-10 -4 -10 -10z"/>
<path d="M2441 3353 c1 -21 3 -31 6 -22 2 10 13 19 24 22 29 8 24 37 -6 37
-22 0 -25 -4 -24 -37z m39 17 c0 -5 -7 -10 -15 -10 -8 0 -15 5 -15 10 0 6 7
10 15 10 8 0 15 -4 15 -10z"/>
<path d="M2528 3383 c12 -2 22 -9 22 -15 0 -6 -9 -8 -20 -5 -11 3 -20 1 -20
-5 0 -5 10 -8 23 -6 31 4 28 33 -3 35 -22 1 -22 1 -2 -4z"/>
<path d="M2375 3342 c-3 -8 -3 -17 0 -20 3 -3 5 0 5 6 0 7 9 12 20 12 11 0 20
-5 20 -12 0 -6 3 -9 6 -5 9 9 -9 32 -28 33 -9 1 -19 -5 -23 -14z"/>
<path d="M2500 3330 c0 -5 5 -10 10 -10 6 0 10 5 10 10 0 6 -4 10 -10 10 -5 0
-10 -4 -10 -10z"/>
<path d="M3440 3380 c0 -5 5 -10 10 -10 6 0 10 -5 10 -11 0 -6 -6 -9 -14 -6
-14 6 -32 -21 -21 -31 3 -3 5 0 5 6 0 7 9 12 20 12 11 0 20 -5 20 -12 0 -6 2
-9 5 -6 8 7 -16 68 -26 68 -5 0 -9 -4 -9 -10z"/>
<path d="M3491 3353 c1 -21 3 -31 6 -22 2 10 13 19 24 22 29 8 24 37 -6 37
-22 0 -25 -4 -24 -37z m39 17 c0 -5 -7 -10 -15 -10 -8 0 -15 5 -15 10 0 6 7
10 15 10 8 0 15 -4 15 -10z"/>
<path d="M3578 3383 c12 -2 22 -9 22 -15 0 -6 -9 -8 -20 -5 -11 3 -20 1 -20
-5 0 -5 10 -8 23 -6 31 4 28 33 -3 35 -22 1 -22 1 -2 -4z"/>
<path d="M3555 3330 c-3 -5 -1 -10 4 -10 6 0 11 5 11 10 0 6 -2 10 -4 10 -3 0
-8 -4 -11 -10z"/>
<path d="M2349 2703 c-13 -17 -13 -17 6 -3 11 8 22 16 24 17 2 2 0 3 -6 3 -6
0 -17 -8 -24 -17z"/>
<path d="M2455 2709 c-11 -16 -1 -19 13 -3 7 8 8 14 3 14 -5 0 -13 -5 -16 -11z"/>
<path d="M2530 2700 c0 -5 -8 -10 -17 -11 -14 0 -15 -2 -3 -6 8 -3 18 -11 22
-17 4 -6 8 1 8 17 0 15 -2 27 -5 27 -3 0 -5 -4 -5 -10z"/>
<path d="M2396 2675 c-9 -26 -7 -32 5 -12 6 10 9 21 6 23 -2 3 -7 -2 -11 -11z"/>
<path d="M2420 2676 c0 -8 4 -17 9 -20 5 -4 7 3 4 14 -6 23 -13 26 -13 6z"/>
<path d="M2450 2671 c0 -10 19 -25 25 -20 1 2 -3 10 -11 17 -8 7 -14 8 -14 3z"/>
<path d="M2357 2659 c7 -7 15 -10 18 -7 3 3 -2 9 -12 12 -14 6 -15 5 -6 -5z"/>
<path d="M2582 4230 c0 -14 2 -19 5 -12 2 6 2 18 0 25 -3 6 -5 1 -5 -13z"/>
<path d="M5192 3217 c-19 -20 -22 -35 -22 -104 l0 -80 -30 -6 c-28 -6 -29 -8
-18 -32 14 -31 22 -31 36 -2 9 18 11 9 11 -49 1 -55 5 -77 20 -95 l19 -24 372
0 372 0 19 24 c17 21 19 41 19 185 0 157 -1 163 -23 184 -23 22 -27 22 -388
22 l-366 0 -21 -23z m768 -7 c18 -18 20 -33 20 -176 0 -88 -4 -164 -10 -175
-10 -18 -25 -19 -390 -19 -365 0 -380 1 -390 19 -5 11 -10 86 -10 173 0 123 3
158 16 176 l15 22 365 0 c351 0 365 -1 384 -20z"/>
<path d="M5234 3035 c1 -29 6 -41 19 -43 9 -2 17 1 17 7 0 6 -6 11 -14 11 -9
0 -16 13 -19 33 -4 26 -4 24 -3 -8z"/>
<path d="M5436 3061 c-3 -5 1 -11 9 -14 9 -4 12 -1 8 9 -6 16 -10 17 -17 5z"/>
<path d="M5780 3050 c0 -5 5 -10 10 -10 6 0 10 5 10 10 0 6 -4 10 -10 10 -5 0
-10 -4 -10 -10z"/>
<path d="M5284 3035 c-7 -18 14 -47 27 -39 15 9 10 24 -6 18 -10 -4 -15 0 -15
11 0 11 5 15 15 11 8 -3 15 -1 15 4 0 16 -30 11 -36 -5z"/>
<path d="M5340 3046 c0 -2 7 -6 15 -10 8 -3 15 -1 15 4 0 6 -7 10 -15 10 -8 0
-15 -2 -15 -4z"/>
<path d="M5483 3034 c-3 -8 -1 -20 5 -26 8 -8 9 -5 5 11 -3 12 -1 21 6 21 18
0 13 -48 -6 -54 -14 -4 -14 -4 2 -3 26 3 36 67 10 67 -8 0 -18 -7 -22 -16z"/>
<path d="M5533 3034 c-3 -8 -1 -20 5 -26 8 -8 9 -5 6 10 -4 14 0 22 13 25 17
4 17 5 0 6 -10 0 -20 -6 -24 -15z"/>
<path d="M5590 3025 c0 -14 2 -25 4 -25 2 0 6 11 8 25 3 14 1 25 -3 25 -5 0
-9 -11 -9 -25z"/>
<path d="M5624 3035 c-8 -19 14 -47 29 -38 6 4 3 9 -9 14 -17 7 -17 8 -1 8 21
1 23 31 2 31 -9 0 -18 -7 -21 -15z"/>
<path d="M5680 3046 c0 -2 7 -6 15 -10 8 -3 15 -1 15 4 0 6 -7 10 -15 10 -8 0
-15 -2 -15 -4z"/>
<path d="M5745 3040 c17 -7 17 -9 3 -9 -19 -1 -25 -26 -8 -36 6 -3 7 1 4 9 -3
9 -2 16 4 16 6 0 13 -6 15 -12 3 -7 6 -1 6 15 1 22 -3 27 -21 26 -22 0 -22 -1
-3 -9z"/>
<path d="M5812 3025 c0 -16 2 -22 5 -12 2 9 2 23 0 30 -3 6 -5 -1 -5 -18z"/>
<path d="M5834 3035 c-7 -18 14 -47 27 -39 15 9 10 24 -6 18 -10 -4 -15 0 -15
11 0 11 5 15 15 11 8 -3 15 -1 15 4 0 16 -30 11 -36 -5z"/>
<path d="M5885 3040 c3 -5 12 -7 20 -3 21 7 19 13 -6 13 -11 0 -18 -4 -14 -10z"/>
<path d="M5416 3014 c-5 -13 -3 -14 6 -7 7 6 20 13 28 16 10 4 8 6 -6 6 -12 1
-25 -6 -28 -15z"/>
<path d="M5670 3021 c0 -6 4 -13 10 -16 6 -3 7 1 4 9 -7 18 -14 21 -14 7z"/>
<path d="M5700 3006 c0 -8 -6 -17 -12 -19 -8 -3 -6 -6 5 -6 11 -1 17 6 17 19
0 11 -2 20 -5 20 -3 0 -5 -6 -5 -14z"/>
<path d="M5352 2995 c-11 -12 -10 -15 3 -15 8 0 15 7 15 15 0 18 -2 18 -18 0z"/>
<path d="M5552 2995 c-11 -12 -10 -15 3 -15 8 0 15 7 15 15 0 18 -2 18 -18 0z"/>
<path d="M4861 2804 c-134 -101 -248 -184 -252 -184 -4 0 -6 9 -4 20 4 20 -2
20 -236 20 l-239 0 0 -239 0 -239 21 5 c12 4 20 2 18 -4 -10 -25 -334 -432
-337 -423 -7 21 -21 9 -24 -22 l-3 -33 -195 -5 -194 -5 -13 -25 c-7 -14 -13
-58 -13 -97 l0 -73 -250 0 c-225 0 -249 2 -243 16 5 15 3 15 -26 0 l-31 -17 0
122 0 122 -39 37 c-30 29 -57 42 -118 59 -44 11 -93 21 -109 21 -16 0 -46 3
-66 6 -36 6 -37 7 -23 27 19 28 19 38 -1 30 -14 -5 -15 14 -13 176 3 140 6
181 16 181 10 0 10 7 -3 32 l-16 32 -15 -28 c-12 -24 -13 -30 -2 -37 11 -6 11
-11 1 -21 -14 -14 -16 -42 -2 -33 7 4 10 -48 10 -150 0 -117 -3 -154 -12 -149
-8 5 -9 2 -5 -9 4 -10 9 -23 13 -31 6 -14 -34 -26 -90 -26 -51 0 -173 -36
-211 -61 -19 -13 -39 -34 -44 -47 -7 -14 -11 -116 -11 -263 l0 -241 33 -33
c23 -23 57 -41 108 -57 64 -20 94 -23 229 -23 160 1 204 8 288 48 69 32 82 62
82 194 l0 113 26 -10 c32 -13 37 -12 29 0 -4 7 80 10 244 10 l251 0 0 -74 c0
-59 4 -78 21 -100 l20 -26 189 0 188 0 7 -30 c8 -36 11 -37 35 -7 18 22 18 22
-3 29 -12 3 56 6 151 7 227 1 212 -13 212 205 0 221 16 205 -215 208 -158 3
-176 5 -150 16 22 10 26 15 15 22 -11 7 -5 19 28 62 23 29 99 127 170 218
l128 165 209 0 c116 0 212 3 215 6 7 10 505 -442 505 -458 0 -8 7 -18 15 -23
10 -6 -45 -10 -156 -10 -153 0 -173 -2 -187 -18 -14 -16 -17 -45 -17 -190 0
-165 1 -171 22 -186 18 -13 56 -16 209 -16 154 0 188 -3 192 -15 8 -20 -693
-511 -704 -493 -5 8 -11 4 -20 -15 -16 -35 -24 -34 -39 6 -11 31 -12 31 -21
10 -4 -13 -14 -23 -21 -23 -8 -1 -7 -5 5 -14 15 -12 9 -14 -45 -18 -104 -9
-186 -37 -229 -78 l-39 -37 0 -246 0 -245 25 -30 c56 -66 191 -98 389 -89 147
6 229 28 287 76 l34 29 0 255 c0 241 -1 256 -20 277 -22 24 -87 60 -107 60 -7
-1 11 -12 40 -26 61 -30 90 -73 74 -109 -25 -54 -213 -91 -411 -82 -233 12
-338 64 -287 142 38 59 175 97 341 96 61 0 134 -5 164 -11 30 -5 56 -8 58 -6
6 6 -92 26 -126 26 -71 0 -30 36 319 281 189 132 346 236 348 230 6 -19 19
-12 32 19 l12 30 143 0 c185 0 190 3 190 119 0 68 2 80 15 75 36 -15 53 -17
46 -6 -5 9 85 12 363 12 l371 0 0 -74 c0 -59 4 -78 21 -100 19 -24 26 -26 100
-26 l79 0 0 -195 c0 -123 4 -195 10 -195 6 0 10 72 10 195 l0 195 195 0 196 0
-16 -30 c-14 -27 -14 -30 0 -30 13 0 15 -26 15 -183 0 -242 11 -227 -171 -227
-86 0 -139 -4 -139 -10 0 -14 228 -13 267 0 47 17 53 43 53 240 0 156 2 180
16 180 14 0 14 2 0 22 -9 12 -16 26 -16 30 0 5 36 8 80 8 120 0 120 0 120 203
0 223 17 207 -217 207 -172 0 -185 1 -178 18 16 38 18 55 7 48 -9 -5 -12 54
-12 234 0 211 2 241 15 236 8 -3 15 -3 15 -1 0 11 -24 55 -30 55 -6 0 -30 -44
-30 -56 0 -3 5 -2 10 1 7 4 10 -77 10 -235 0 -211 -2 -241 -15 -236 -19 7 -19
-5 0 -30 8 -10 15 -22 15 -26 0 -5 -85 -8 -189 -8 -227 0 -221 3 -221 -122 l0
-78 -370 0 c-324 0 -369 2 -364 15 8 19 -6 19 -34 -1 l-22 -15 0 74 c0 60 -4
79 -21 101 l-20 26 -185 0 -184 0 -17 36 c-12 23 -19 30 -23 21 -3 -10 -87 59
-267 221 l-263 237 1 195 0 195 255 190 c139 104 254 191 254 192 0 11 -43
-20 -259 -183z m-424 -229 c2 -6 -26 -10 -72 -10 -70 0 -92 6 -62 19 21 9 130
2 134 -9z m-159 -7 c30 -30 -4 -77 -41 -57 -29 17 -15 69 18 69 6 0 16 -5 23
-12z m232 -27 c0 -29 -25 -45 -49 -31 -25 13 -27 33 -5 54 19 20 54 5 54 -23z
m-277 -56 c-3 -8 -12 -15 -19 -15 -12 0 -12 4 -4 20 12 23 32 18 23 -5z m291
9 c4 -9 4 -19 2 -21 -8 -8 -26 8 -26 23 0 19 16 18 24 -2z m-199 -14 c8 -13
61 -13 87 1 26 14 33 6 17 -20 -16 -24 -6 -39 14 -22 11 9 17 8 27 -4 11 -13
10 -19 -4 -33 -14 -15 -18 -15 -26 -2 -15 24 -24 2 -11 -26 10 -24 10 -26 -6
-19 -34 15 -81 17 -103 5 -21 -11 -22 -11 -15 11 10 32 11 69 1 97 -7 22 7 32
19 12z m-93 -37 c15 -14 23 -15 38 -6 14 10 21 9 31 -3 10 -12 9 -18 -4 -32
-11 -10 -17 -12 -17 -4 0 15 -32 16 -48 0 -7 -7 -8 -17 -2 -29 7 -11 7 -20 0
-24 -5 -3 -10 -2 -10 4 0 5 -11 22 -25 37 -29 32 -30 37 -9 58 19 20 23 20 46
-1z m316 8 c8 -4 12 -19 10 -32 -4 -29 -45 -34 -61 -7 -19 30 19 60 51 39z
m-24 -86 c-6 -16 -24 -21 -24 -7 0 11 11 22 21 22 5 0 6 -7 3 -15z m-16 -58
c-5 -37 -67 -33 -68 5 0 4 7 14 16 22 21 22 56 3 52 -27z m-220 6 c4 -26 50
-39 113 -30 42 5 54 -7 17 -17 -39 -10 -93 -7 -113 8 -14 10 -23 11 -36 3 -19
-12 -49 5 -49 27 0 39 63 47 68 9z m-1628 -479 c79 -18 140 -51 156 -83 8 -16
13 -100 13 -256 l2 -233 -25 -29 c-99 -117 -552 -125 -665 -12 l-31 31 0 213
0 214 33 -19 c67 -40 153 -54 322 -55 95 0 182 5 214 13 63 15 147 50 138 58
-3 3 -16 -1 -29 -10 -126 -83 -621 -64 -669 26 -63 117 268 204 541 142z
m1530 -163 c6 -11 10 -88 10 -177 0 -132 -3 -160 -17 -176 -15 -17 -40 -18
-380 -18 -350 0 -364 1 -383 20 -18 18 -20 33 -20 173 0 122 3 157 16 175 l15
22 374 0 c360 0 375 -1 385 -19z m1368 7 c8 -8 12 -64 12 -185 0 -160 -1 -173
-19 -183 -13 -6 -151 -10 -380 -10 -314 0 -362 2 -375 16 -13 13 -16 44 -16
183 0 116 4 171 12 179 17 17 749 17 766 0z m1622 -7 c6 -11 10 -88 10 -177 0
-132 -3 -160 -17 -176 -15 -17 -40 -18 -380 -18 -350 0 -364 1 -383 20 -18 18
-20 33 -20 177 0 132 3 159 17 175 15 17 40 18 389 18 359 0 374 -1 384 -19z
m-2983 -1173 c158 -46 466 -31 571 27 l42 24 0 -209 0 -209 -30 -35 c-46 -52
-127 -76 -280 -83 -144 -6 -246 6 -323 41 -87 38 -87 38 -87 285 0 212 0 214
20 196 10 -9 50 -26 87 -37z"/>
<path d="M4245 2550 c-4 -6 -3 -16 3 -22 6 -6 12 -6 17 2 4 6 3 16 -3 22 -6 6
-12 6 -17 -2z"/>
<path d="M4462 2538 c6 -18 28 -21 28 -4 0 9 -7 16 -16 16 -9 0 -14 -5 -12
-12z"/>
<path d="M4335 2420 c0 -27 3 -30 31 -30 27 0 31 3 31 30 0 27 -4 30 -31 30
-28 0 -31 -3 -31 -30z"/>
<path d="M4195 2430 c-8 -13 4 -32 16 -25 12 8 12 35 0 35 -6 0 -13 -4 -16
-10z"/>
<path d="M4517 2433 c-12 -11 -8 -23 8 -23 8 0 15 7 15 15 0 16 -12 20 -23 8z"/>
<path d="M4465 2320 c-7 -12 2 -30 16 -30 5 0 9 9 9 20 0 21 -15 27 -25 10z"/>
<path d="M4245 2320 c-10 -17 12 -37 25 -24 8 8 6 15 -4 23 -10 9 -16 9 -21 1z"/>
<path d="M2181 1383 c1 -21 3 -30 6 -20 6 21 12 22 28 0 11 -15 13 -13 11 17
-1 28 -6 36 -24 38 -20 3 -22 -1 -21 -35z m39 17 c0 -5 -7 -10 -15 -10 -8 0
-15 5 -15 10 0 6 7 10 15 10 8 0 15 -4 15 -10z"/>
<path d="M2303 1385 c0 -22 2 -30 4 -17 2 12 2 30 0 40 -3 9 -5 -1 -4 -23z"/>
<path d="M2630 1385 c0 -34 2 -36 28 -33 23 3 27 8 27 33 0 25 -4 30 -27 33
-26 3 -28 1 -28 -33z m50 0 c0 -18 -5 -25 -20 -25 -15 0 -20 7 -20 25 0 18 5
25 20 25 15 0 20 -7 20 -25z"/>
<path d="M2710 1411 c0 -5 9 -7 20 -4 11 3 20 7 20 9 0 2 -9 4 -20 4 -11 0
-20 -4 -20 -9z"/>
<path d="M2252 1398 c-18 -18 -15 -28 7 -28 26 0 34 15 18 29 -10 8 -17 7 -25
-1z m25 -14 c-3 -3 -12 -4 -19 -1 -8 3 -5 6 6 6 11 1 17 -2 13 -5z"/>
<path d="M2330 1399 c-12 -7 -11 -9 5 -9 18 -1 19 -1 3 -11 -24 -13 -23 -29 2
-29 15 0 20 7 20 24 0 29 -11 38 -30 25z"/>
<path d="M2370 1400 c0 -5 5 -10 10 -10 6 0 10 5 10 10 0 6 -4 10 -10 10 -5 0
-10 -4 -10 -10z"/>
<path d="M2430 1395 c-7 -8 -10 -22 -6 -30 6 -16 36 -21 36 -5 0 5 -7 7 -15 4
-10 -4 -15 0 -15 11 0 11 5 15 15 11 8 -3 15 -1 15 4 0 17 -18 20 -30 5z"/>
<path d="M2506 1383 c9 -38 14 -42 14 -10 0 14 -5 29 -10 32 -7 4 -8 -3 -4
-22z"/>
<path d="M2540 1399 c-12 -7 -11 -9 5 -9 18 -1 19 -1 3 -11 -24 -13 -23 -29 2
-29 15 0 20 7 20 24 0 29 -11 38 -30 25z"/>
<path d="M2402 1375 c0 -16 2 -22 5 -12 2 9 2 23 0 30 -3 6 -5 -1 -5 -18z"/>
<path d="M2482 1375 c0 -16 2 -22 5 -12 2 9 2 23 0 30 -3 6 -5 -1 -5 -18z"/>
<path d="M2710 1382 c0 -6 9 -8 20 -5 11 3 20 1 20 -5 0 -6 -9 -13 -20 -16
-17 -5 -17 -6 3 -3 12 1 22 9 22 17 0 8 -10 16 -22 18 -13 2 -23 -1 -23 -6z"/>
<path d="M2258 1353 c7 -3 16 -2 19 1 4 3 -2 6 -13 5 -11 0 -14 -3 -6 -6z"/>
<path d="M3771 1493 c1 -21 3 -30 6 -20 2 9 13 17 24 17 10 0 19 4 19 9 0 5
-9 7 -20 4 -11 -3 -20 -1 -20 5 0 6 10 13 23 15 19 4 18 4 -5 6 -26 1 -28 -2
-27 -36z"/>
<path d="M3841 1493 c1 -21 3 -31 6 -22 2 10 13 19 24 22 29 8 24 37 -6 37
-22 0 -25 -4 -24 -37z m39 17 c0 -5 -7 -10 -15 -10 -8 0 -15 5 -15 10 0 6 7
10 15 10 8 0 15 -4 15 -10z"/>
<path d="M3740 1502 c0 -7 -4 -11 -9 -7 -6 3 -15 -4 -21 -15 -10 -19 -10 -20
10 -8 17 11 22 11 30 -2 9 -13 10 -13 10 0 0 8 -5 22 -10 30 -7 11 -10 11 -10
2z"/>
<path d="M5151 1493 c1 -21 3 -31 6 -22 2 10 13 19 25 22 25 7 19 31 -10 35
-19 3 -22 -1 -21 -35z m39 17 c0 -5 -7 -10 -15 -10 -8 0 -15 5 -15 10 0 6 7
10 15 10 8 0 15 -4 15 -10z"/>
<path d="M5211 1493 c1 -21 3 -30 6 -20 2 9 11 17 18 17 8 0 16 4 19 9 4 5 -3
7 -14 4 -11 -3 -20 -1 -20 5 0 6 10 13 23 15 19 4 18 4 -5 6 -26 1 -28 -2 -27
-36z"/>
<path d="M5085 1482 c-8 -22 -6 -28 5 -12 8 12 13 13 29 3 16 -10 18 -9 14 7
-6 21 -40 23 -48 2z"/>
<path d="M6761 1493 c1 -21 3 -30 6 -20 2 9 13 17 24 17 10 0 19 4 19 9 0 5
-9 7 -20 4 -11 -3 -20 -1 -20 5 0 6 10 13 23 15 19 4 18 4 -5 6 -26 1 -28 -2
-27 -36z"/>
<path d="M6831 1493 c1 -21 3 -31 6 -22 2 10 13 19 24 22 29 8 24 37 -6 37
-22 0 -25 -4 -24 -37z m39 17 c0 -5 -7 -10 -15 -10 -8 0 -15 5 -15 10 0 6 7
10 15 10 8 0 15 -4 15 -10z"/>
<path d="M6730 1502 c0 -7 -4 -11 -9 -7 -6 3 -15 -4 -21 -15 -10 -19 -10 -20
10 -8 17 11 22 11 30 -2 9 -13 10 -13 10 0 0 8 -5 22 -10 30 -7 11 -10 11 -10
2z"/>
<path d="M4120 257 c0 -21 6 -37 14 -40 16 -6 43 19 32 30 -3 3 -6 1 -6 -5 0
-7 -7 -12 -15 -12 -9 0 -15 9 -15 25 0 25 23 35 33 15 3 -6 4 -5 3 2 -1 7 -12
14 -24 16 -19 3 -22 -1 -22 -31z"/>
<path d="M4243 255 c0 -22 2 -30 4 -17 2 12 2 30 0 40 -3 9 -5 -1 -4 -23z"/>
<path d="M4380 281 c0 -5 5 -13 10 -16 6 -3 10 -2 10 4 0 5 -4 13 -10 16 -5 3
-10 2 -10 -4z"/>
<path d="M4421 274 c0 -11 3 -14 6 -6 3 7 2 16 -1 19 -3 4 -6 -2 -5 -13z"/>
<path d="M4351 264 c0 -11 3 -14 6 -6 3 7 2 16 -1 19 -3 4 -6 -2 -5 -13z"/>
<path d="M4205 261 c17 -8 18 -10 3 -10 -10 -1 -18 -7 -18 -15 0 -19 13 -27
29 -17 19 12 9 45 -14 48 -20 3 -20 3 0 -6z"/>
<path d="M4285 260 c17 -7 17 -9 3 -9 -17 -1 -24 -21 -12 -34 12 -12 34 6 34
29 0 18 -5 24 -22 23 -22 0 -22 -1 -3 -9z"/>
<path d="M4455 260 c16 -7 17 -9 3 -9 -22 -1 -32 -17 -17 -27 7 -4 9 -3 6 3
-4 6 3 13 14 16 24 6 17 27 -9 26 -14 0 -13 -2 3 -9z"/>
<path d="M4490 245 c0 -14 2 -25 4 -25 2 0 6 11 8 25 3 14 1 25 -3 25 -5 0 -9
-11 -9 -25z"/>
<path d="M4523 254 c-7 -19 21 -51 31 -35 4 6 0 11 -11 12 -16 0 -16 1 2 9
l20 9 -20 1 -20 1 20 9 c18 8 18 9 2 9 -10 1 -20 -6 -24 -15z"/>
<path d="M4580 262 c0 -4 9 -8 19 -8 11 0 17 4 15 8 -3 4 -12 8 -20 8 -8 0
-14 -4 -14 -8z"/>
<path d="M4630 246 c0 -20 5 -26 21 -26 15 0 20 5 17 22 -5 34 -38 37 -38 4z
m30 -1 c0 -8 -4 -15 -10 -15 -5 0 -10 7 -10 15 0 8 5 15 10 15 6 0 10 -7 10
-15z"/>
<path d="M4748 263 c7 -3 16 -2 19 1 4 3 -2 6 -13 5 -11 0 -14 -3 -6 -6z"/>
<path d="M4748 243 c7 -3 16 -2 19 1 4 3 -2 6 -13 5 -11 0 -14 -3 -6 -6z"/>
<path d="M4745 220 c4 -6 11 -8 16 -5 14 9 11 15 -7 15 -8 0 -12 -5 -9 -10z"/>
<path d="M5990 2840 c1 -3 10 -16 21 -29 15 -18 23 -22 28 -13 6 9 60 -12 201
-78 106 -49 195 -88 198 -86 2 3 -29 20 -70 38 -40 19 -131 61 -201 93 -71 33
-123 61 -118 63 25 8 8 22 -24 20 -19 -1 -35 -5 -35 -8z"/>
<path d="M6600 2777 l-125 -52 -3 -43 c-2 -29 1 -42 9 -42 10 0 10 -3 1 -12
-7 -7 -12 -29 -12 -50 0 -23 5 -38 12 -38 9 0 9 -3 0 -12 -7 -7 -12 -28 -12
-49 l0 -36 142 -57 c102 -41 149 -56 167 -51 14 3 83 29 154 58 l127 51 0 36
c0 20 -5 41 -11 47 -8 8 -8 13 0 17 15 10 14 69 -1 84 -9 9 -9 12 1 12 8 0 11
13 9 42 l-3 42 -125 52 c-79 33 -140 53 -165 53 -26 0 -84 -18 -165 -52z m205
6 c-2 -7 0 -13 5 -13 6 0 10 -4 10 -9 0 -5 -9 -7 -20 -4 -11 3 -28 -1 -37 -8
-13 -11 -17 -11 -20 -1 -3 6 -17 12 -31 12 l-27 1 23 12 c12 7 20 16 17 19 -3
3 15 5 40 4 31 -1 44 -5 40 -13z m-121 -43 c14 -5 26 -16 26 -24 0 -35 -124
-43 -137 -8 -13 33 56 53 111 32z m126 -67 c0 -5 -9 -19 -19 -32 l-18 -24 -47
19 c-25 10 -46 22 -46 26 0 4 21 9 48 11 26 2 55 4 65 5 9 1 17 -1 17 -5z"/>
<path d="M2180 2771 c0 -8 -7 -23 -17 -33 -15 -17 -14 -18 21 -18 39 0 39 2 6
50 -8 12 -10 13 -10 1z"/>
<path d="M269 2716 c-22 -38 -62 -59 -105 -55 -16 1 -42 1 -58 1 -31 -2 -30 9
-10 -120 5 -35 2 -44 -36 -87 l-42 -49 31 -28 c17 -15 40 -28 50 -28 27 0 51
-43 51 -90 0 -49 14 -57 67 -39 50 17 100 12 134 -13 34 -25 55 -18 74 24 20
46 45 71 83 87 37 15 37 14 18 49 -8 15 -18 44 -21 65 -13 83 -107 143 -177
114 -44 -19 -68 -47 -75 -90 -5 -31 -1 -40 25 -67 31 -30 64 -38 92 -20 11 7
5 10 -22 10 -72 0 -90 83 -27 119 30 17 71 9 99 -19 32 -32 27 -102 -9 -142
-26 -30 -35 -33 -84 -33 -60 0 -93 17 -131 69 -44 59 -20 180 45 229 30 22
101 33 154 23 45 -9 102 -59 127 -111 l19 -40 -4 43 c-3 24 -17 60 -30 81 -14
21 -27 49 -29 62 -3 22 -8 24 -56 24 -48 0 -55 3 -78 33 -32 41 -50 40 -75 -2z"/>
<path d="M2225 2269 c-4 -6 -4 -13 -1 -16 3 -4 6 -1 6 6 0 8 8 11 20 8 11 -3
18 -1 14 4 -7 12 -31 11 -39 -2z"/>
<path d="M2648 2259 c-19 -10 -24 -44 -9 -53 4 -3 6 6 3 19 -2 14 0 25 6 25 6
0 13 -10 15 -22 3 -17 5 -14 6 10 0 17 0 32 -1 32 -2 0 -11 -5 -20 -11z"/>
<path d="M2298 2253 c7 -3 16 -2 19 1 4 3 -2 6 -13 5 -11 0 -14 -3 -6 -6z"/>
<path d="M2344 2245 c-8 -20 2 -45 18 -44 10 0 10 2 1 6 -7 2 -13 13 -13 23 0
10 6 21 13 23 9 4 9 6 -1 6 -7 1 -15 -6 -18 -14z"/>
<path d="M2390 2252 c0 -4 9 -8 19 -8 11 0 17 4 15 8 -3 4 -12 8 -20 8 -8 0
-14 -4 -14 -8z"/>
<path d="M2521 2233 c2 -24 2 -25 6 -5 2 12 8 22 13 22 5 0 11 -10 13 -22 4
-20 4 -19 6 5 1 21 -4 27 -19 27 -15 0 -20 -6 -19 -27z"/>
<path d="M2580 2250 c0 -5 7 -7 16 -3 12 4 15 1 12 -13 -2 -10 -10 -18 -17
-16 -7 1 -9 -2 -6 -9 11 -16 39 16 32 35 -7 17 -37 22 -37 6z"/>
<path d="M2698 2253 c7 -3 16 -2 19 1 4 3 -2 6 -13 5 -11 0 -14 -3 -6 -6z"/>
<path d="M2300 2230 c13 -9 13 -11 0 -21 -13 -9 -13 -10 0 -6 22 6 25 37 3 37
-15 0 -16 -2 -3 -10z"/>
<path d="M2680 2231 c0 -5 6 -14 14 -20 11 -9 16 -9 22 0 4 7 3 9 -4 5 -6 -3
-13 -2 -16 3 -4 5 4 12 16 14 20 4 19 4 -4 6 -16 0 -28 -3 -28 -8z"/>
<path d="M2220 2221 c0 -18 30 -25 43 -11 9 10 9 11 -1 6 -7 -4 -19 -2 -27 4
-11 9 -15 9 -15 1z"/>
<path d="M3860 1236 c12 -11 462 -402 523 -454 9 -8 17 -13 17 -10 0 8 -537
478 -546 478 -5 0 -2 -6 6 -14z"/>
<path d="M6587 861 c8 -31 73 -76 73 -51 0 6 -8 10 -18 10 -23 0 -42 19 -42
42 0 10 -4 18 -9 18 -5 0 -7 -9 -4 -19z"/>
</g>
</svg>
