<?xml version="1.0" standalone="no"?>
<!DOCTYPE svg PUBLIC "-//W3C//DTD SVG 20010904//EN"
 "http://www.w3.org/TR/2001/REC-SVG-20010904/DTD/svg10.dtd">
<svg version="1.0" xmlns="http://www.w3.org/2000/svg"
 width="1280.000000pt" height="1280.000000pt" viewBox="0 0 1280.000000 1280.000000"
 preserveAspectRatio="xMidYMid meet">
<g transform="translate(0.000000,1280.000000) scale(0.100000,-0.100000)"
fill="#000000" stroke="none">
<path d="M3645 11809 c-16 -19 -44 -46 -61 -60 -18 -14 -40 -41 -49 -60 -10
-19 -23 -41 -31 -49 -16 -19 -47 -183 -63 -330 -7 -64 -11 -317 -11 -647 0
-587 0 -584 -51 -509 -13 19 -34 40 -46 45 -13 6 -23 15 -23 19 0 8 -115 93
-154 113 -24 14 -83 32 -131 41 -27 5 -79 18 -115 29 -106 31 -151 34 -196 12
-21 -11 -50 -23 -64 -27 -14 -4 -36 -21 -50 -39 -25 -31 -25 -33 -22 -207 1
-102 11 -244 23 -340 18 -142 20 -201 16 -425 -3 -143 -10 -278 -16 -300 -5
-22 -15 -107 -21 -190 -9 -111 -17 -160 -31 -188 -11 -23 -19 -58 -19 -90 0
-36 -8 -66 -25 -99 -14 -27 -25 -64 -25 -85 0 -21 -8 -54 -19 -73 -10 -19 -22
-60 -26 -90 -4 -30 -13 -65 -21 -77 -8 -12 -19 -46 -25 -75 -6 -29 -20 -67
-30 -84 -10 -17 -19 -43 -19 -57 0 -14 -11 -49 -25 -79 -14 -29 -25 -63 -25
-74 0 -12 -9 -41 -20 -65 -11 -24 -20 -55 -20 -69 0 -14 -11 -47 -25 -75 -13
-27 -25 -67 -25 -88 0 -22 -9 -49 -21 -66 -12 -16 -24 -51 -27 -77 -3 -27 -13
-62 -24 -79 -10 -16 -18 -48 -18 -70 0 -22 -10 -65 -21 -95 -11 -30 -25 -88
-30 -128 -5 -40 -16 -83 -25 -96 -10 -16 -17 -58 -21 -118 -2 -51 -13 -119
-24 -151 -17 -51 -19 -89 -19 -358 0 -260 2 -304 17 -332 9 -18 20 -73 24
-124 5 -52 14 -102 23 -115 8 -13 19 -50 25 -83 5 -33 19 -78 30 -100 12 -21
21 -51 21 -66 0 -14 9 -38 20 -52 11 -14 20 -31 20 -39 0 -8 11 -29 25 -48 14
-19 25 -41 25 -49 0 -9 7 -27 15 -41 8 -14 23 -43 35 -65 11 -22 28 -51 38
-65 9 -14 26 -41 37 -59 11 -18 40 -59 65 -91 25 -33 58 -77 74 -99 43 -60
239 -245 350 -331 92 -72 112 -85 216 -144 58 -34 79 -46 111 -68 15 -9 40
-20 55 -24 16 -4 41 -16 55 -27 49 -36 63 -22 72 72 4 54 13 91 23 102 9 10
20 36 25 58 8 37 58 123 80 136 5 4 9 13 9 22 0 20 96 134 134 159 17 10 45
27 63 36 53 29 53 58 -2 122 -65 76 -57 99 15 47 30 -22 59 -41 63 -41 5 0 29
-14 53 -31 73 -50 183 -96 273 -114 68 -14 110 -16 229 -10 l146 7 97 50 c53
28 109 60 123 72 l27 21 0 667 c0 466 -3 673 -11 687 -13 25 26 23 -396 22
-328 -1 -352 0 -368 17 -15 17 -16 186 -14 2280 3 2070 4 2263 19 2277 15 15
160 17 1683 17 1255 -1 1671 -4 1681 -12 8 -7 17 -28 21 -47 4 -19 7 -432 8
-916 l1 -882 47 -3 c38 -2 49 1 57 16 6 12 25 21 50 25 21 2 52 15 68 27 17
12 48 26 71 31 56 12 117 57 131 95 6 17 11 47 11 67 0 32 4 39 38 55 20 11
51 27 67 36 17 9 37 16 46 16 9 0 22 6 28 14 6 7 50 32 99 55 48 23 94 46 102
51 8 5 47 25 85 44 82 41 166 119 200 187 14 26 29 50 35 54 5 3 10 22 10 40
0 19 12 65 26 102 31 82 27 120 -16 169 -21 24 -29 42 -25 55 4 11 -4 39 -19
66 -13 27 -38 77 -55 113 -37 81 -65 108 -161 156 -117 60 -233 58 -372 -3
-32 -14 -64 -23 -73 -20 -13 6 -15 64 -15 491 0 522 3 482 -51 602 -11 23 -19
46 -19 51 0 5 -11 20 -24 32 -14 13 -30 36 -36 52 -7 16 -22 31 -34 34 -11 2
-379 9 -816 15 -437 6 -1065 15 -1395 20 -330 5 -845 12 -1145 16 l-545 6 -30
-33z m2035 -189 c10 -6 36 -10 57 -10 91 -1 185 -82 186 -160 0 -53 -45 -123
-101 -157 -44 -26 -54 -28 -152 -28 -168 1 -342 36 -389 80 -7 7 -15 41 -18
76 -7 81 12 131 59 155 18 9 39 25 46 35 7 10 22 19 35 21 42 7 259 -2 277
-12z"/>
<path d="M4400 10703 c-65 -7 -81 -14 -124 -53 -29 -27 -47 -54 -55 -83 -9
-31 -11 -353 -9 -1247 l3 -1205 23 -32 c13 -18 43 -44 66 -58 l43 -25 1216 0
c835 0 1225 3 1244 11 38 14 83 57 100 97 12 28 14 221 13 1243 0 1317 3 1235
-54 1297 -53 59 15 56 -1261 58 -643 1 -1186 0 -1205 -3z m884 -752 c3 -4 1
-13 -4 -20 -11 -19 -40 -6 -40 18 0 14 5 18 20 14 11 -3 22 -8 24 -12z m683
-138 c-3 -10 -5 -4 -5 12 0 17 2 24 5 18 2 -7 2 -21 0 -30z"/>
<path d="M7885 8870 c-16 -11 -39 -20 -50 -20 -11 0 -31 -7 -45 -14 -77 -44
-189 -96 -217 -102 -18 -4 -38 -13 -44 -20 -6 -8 -29 -19 -50 -24 -21 -6 -51
-22 -66 -36 -64 -59 -103 -100 -103 -107 0 -5 -9 -20 -20 -34 -11 -14 -22 -41
-26 -62 -3 -20 -14 -57 -25 -83 -23 -57 -25 -145 -4 -175 8 -12 20 -46 25 -75
6 -29 22 -69 36 -90 41 -58 134 -140 172 -150 20 -6 47 -19 62 -30 24 -17 39
-19 136 -16 112 4 130 9 270 74 28 13 55 24 61 24 5 0 24 11 43 25 19 14 41
25 49 25 40 0 145 66 214 135 65 65 76 81 100 152 35 103 38 244 7 308 -11 22
-19 50 -20 62 0 41 -171 196 -230 208 -19 4 -49 16 -66 26 -45 27 -167 27
-209 -1z"/>
<path d="M8040 7744 c-32 -4 -67 -18 -190 -79 -25 -12 -60 -25 -78 -29 -19 -3
-45 -15 -59 -26 -14 -11 -35 -20 -47 -20 -12 0 -38 -11 -57 -24 -20 -14 -49
-28 -65 -32 -28 -6 -142 -70 -175 -96 -35 -29 -98 -128 -105 -164 -4 -21 -15
-56 -25 -76 -26 -51 -26 -156 0 -206 10 -20 22 -53 26 -72 4 -19 18 -51 31
-70 13 -19 24 -39 24 -44 0 -13 63 -76 76 -76 6 0 27 -11 46 -24 20 -13 53
-26 74 -29 22 -3 65 -13 97 -23 57 -17 59 -17 126 4 37 12 78 22 91 22 12 0
37 8 54 19 17 10 49 24 71 31 22 7 53 21 70 31 16 11 38 19 47 19 9 0 29 11
45 24 15 13 46 26 68 30 21 4 45 16 52 26 7 10 31 21 54 25 82 14 188 99 231
185 17 36 39 73 47 83 11 13 16 50 19 135 l4 117 -43 90 c-46 97 -91 149 -180
207 -54 37 -57 37 -174 42 -66 2 -136 2 -155 0z"/>
<path d="M5470 7615 c-14 -8 -46 -19 -72 -25 -25 -6 -54 -20 -64 -31 -9 -10
-22 -19 -28 -19 -16 0 -127 -117 -160 -168 -14 -23 -30 -63 -35 -87 -5 -25
-15 -52 -22 -61 -12 -14 -15 -300 -19 -1779 -5 -1873 -3 -1795 -50 -1795 -11
0 -25 17 -39 48 -31 66 -56 110 -77 133 -17 19 -21 24 -59 88 -11 19 -41 59
-66 90 -25 31 -50 64 -55 73 -15 28 -128 140 -178 178 -26 19 -73 56 -105 81
-31 26 -68 50 -81 54 -14 4 -41 17 -60 30 -19 13 -53 26 -74 30 -21 3 -50 14
-65 23 -38 26 -315 25 -354 -1 -15 -9 -48 -20 -74 -23 -27 -4 -64 -17 -83 -29
-19 -13 -46 -26 -60 -30 -50 -15 -250 -209 -250 -242 0 -6 9 -18 20 -28 11
-10 22 -27 26 -38 14 -45 162 -223 312 -377 57 -58 120 -127 140 -155 20 -27
68 -89 106 -137 39 -48 84 -109 100 -135 16 -26 38 -57 48 -68 36 -39 78 -98
78 -110 0 -7 14 -29 30 -50 17 -21 30 -42 30 -47 0 -6 11 -23 25 -40 14 -16
25 -35 25 -42 0 -7 11 -23 25 -36 14 -13 25 -31 25 -40 0 -9 11 -31 25 -50 14
-19 25 -39 25 -44 0 -6 14 -38 30 -71 16 -33 30 -64 30 -70 0 -5 9 -21 20 -35
11 -14 20 -32 20 -41 0 -9 14 -33 30 -54 17 -21 30 -47 30 -59 0 -11 14 -48
30 -81 17 -33 30 -65 30 -72 0 -6 11 -33 25 -59 14 -26 25 -54 25 -63 0 -9 8
-30 18 -46 11 -17 27 -53 36 -82 9 -28 24 -57 32 -63 7 -7 14 -22 14 -34 0
-11 8 -35 18 -51 11 -17 27 -54 36 -83 10 -28 21 -54 26 -57 5 -3 14 -22 21
-43 6 -20 22 -50 35 -65 13 -16 24 -38 24 -49 0 -11 11 -33 25 -50 14 -16 25
-38 25 -48 0 -10 11 -31 24 -47 14 -16 28 -41 31 -55 4 -15 12 -29 19 -31 7
-3 27 -35 45 -72 18 -37 45 -81 60 -98 24 -29 47 -61 129 -183 12 -19 27 -34
32 -34 5 0 16 -13 24 -28 31 -61 343 -343 431 -391 22 -12 65 -35 95 -52 30
-17 76 -37 101 -45 26 -8 52 -21 59 -29 7 -8 23 -15 35 -15 12 0 47 -14 78
-30 36 -19 71 -30 97 -30 22 0 68 -11 102 -23 42 -16 94 -26 158 -30 53 -3
122 -13 155 -24 54 -16 100 -18 465 -18 359 0 411 2 455 17 28 10 99 22 158
27 71 6 117 15 133 26 15 9 54 21 88 26 33 5 83 20 110 34 27 14 56 25 63 25
8 0 35 11 61 25 26 14 55 25 65 25 11 0 31 8 45 18 15 11 41 24 58 29 17 6 61
32 98 57 37 25 70 46 73 46 2 0 28 20 56 44 29 24 66 50 83 59 47 24 250 225
289 287 19 30 44 66 55 80 54 65 70 89 70 104 0 9 14 30 30 48 17 17 30 39 30
48 0 10 11 34 25 54 14 20 25 43 25 50 0 7 11 30 25 50 14 20 25 47 25 59 0
12 11 44 24 72 13 27 29 79 36 115 6 35 19 78 28 95 16 27 17 125 17 1180 l0
1150 -22 29 c-12 15 -25 44 -29 62 -8 44 -151 188 -204 206 -19 6 -48 21 -63
32 -26 19 -42 21 -191 21 -151 0 -163 -1 -189 -22 -15 -12 -42 -25 -59 -28
-33 -8 -154 -115 -164 -147 -6 -21 -48 -25 -61 -5 -4 6 -10 77 -13 157 -5 124
-9 151 -28 187 -12 23 -22 55 -22 71 0 16 -9 40 -19 53 -10 14 -25 40 -34 59
-15 35 -115 150 -131 150 -5 0 -25 10 -45 23 -132 82 -277 99 -425 50 -44 -14
-92 -36 -106 -48 -14 -12 -40 -28 -57 -35 -18 -7 -33 -16 -33 -21 0 -5 -12
-15 -28 -23 -17 -9 -41 -40 -66 -90 -22 -42 -44 -81 -51 -86 -26 -22 -55 33
-55 106 0 28 -9 63 -25 94 -14 27 -25 60 -25 72 0 40 -116 200 -161 223 -14 8
-31 21 -38 29 -8 9 -23 16 -34 16 -12 0 -39 12 -61 28 -38 26 -43 27 -175 27
-131 0 -138 -1 -182 -27 -25 -16 -54 -28 -63 -28 -24 0 -67 -34 -135 -105 -31
-32 -71 -75 -88 -94 -18 -19 -33 -43 -33 -53 0 -45 -38 -75 -57 -45 -4 6 -10
527 -13 1157 l-5 1145 -28 49 c-15 27 -27 55 -27 61 0 45 -209 245 -256 245
-12 0 -41 9 -65 20 -55 25 -248 28 -289 5z"/>
<path d="M8030 6555 c-47 -12 -107 -34 -134 -49 -27 -14 -57 -26 -66 -26 -10
0 -28 -8 -41 -18 -13 -11 -39 -22 -57 -25 -19 -4 -47 -18 -64 -32 -16 -14 -39
-25 -50 -25 -11 0 -35 -8 -52 -19 -17 -10 -42 -22 -56 -26 -37 -11 -115 -80
-151 -133 -41 -60 -59 -128 -59 -222 1 -92 20 -177 51 -221 46 -66 105 -121
164 -151 56 -29 67 -31 171 -32 118 -1 125 1 275 80 26 13 58 24 72 24 13 0
36 11 50 24 14 13 41 26 60 30 19 4 40 13 47 21 7 8 31 20 53 26 56 15 143 66
168 97 68 88 79 107 79 131 0 15 10 45 21 66 29 54 29 127 1 182 -12 23 -22
53 -22 66 0 57 -159 216 -216 217 -11 0 -47 9 -79 20 -68 23 -58 24 -165 -5z"/>
<path d="M6589 6294 c-16 -20 -23 -472 -8 -490 9 -11 46 -14 150 -14 l139 0 0
175 c0 156 2 180 20 215 21 41 27 105 11 115 -5 3 -75 7 -155 9 -115 3 -148 1
-157 -10z"/>
</g>
</svg>
